<svg width="647" height="346" viewBox="0 0 647 346" fill="none" xmlns="http://www.w3.org/2000/svg" xmlns:xlink="http://www.w3.org/1999/xlink">
<mask id="mask0_19_12" style="mask-type:alpha" maskUnits="userSpaceOnUse" x="2" y="9" width="643" height="269">
<path fill-rule="evenodd" clip-rule="evenodd" d="M401.693 246.449C364.891 265.95 311.092 268.418 264.533 257.669C199.285 242.606 140.104 204.405 94.9223 153.128C91.3763 149.101 94.4136 145.424 98.6477 148.885C147.12 188.471 206.746 219.346 268.013 233.491C309.346 243.033 354.627 244.757 396.114 236.293C402.37 235.019 407.779 243.212 401.693 246.449Z" fill="white"/>
<path fill-rule="evenodd" clip-rule="evenodd" d="M416.895 231.925C412.017 224.592 385.314 221.696 373.317 220.391C369.683 219.996 369.063 216.614 372.299 215.016C393.383 204.635 428.434 217.13 432.592 223.197C436.774 229.307 432.23 263.942 412.528 276.421C409.492 278.334 406.538 276.259 407.85 273.106C412.151 262.661 421.779 239.274 416.895 231.925Z" fill="white"/>
<path fill-rule="evenodd" clip-rule="evenodd" d="M372.189 107.232L371.929 92.3448C371.904 90.0846 373.537 88.9596 375.556 89.4292L440.85 104.5C442.938 104.982 444.64 106.92 444.679 109.121L444.902 121.888C444.92 124.023 443.201 126.406 440.15 130.123L407.19 171.647C419.74 174.247 433.047 179.228 444.578 188.415C447.171 190.487 447.897 192.827 448.141 195.023L448.419 210.904C448.457 213.091 446.153 215.081 443.661 213.189C423.383 197.802 396.692 190.468 374.677 197.398C372.431 198.108 370.007 195.065 369.968 192.874L369.705 177.78C369.663 175.36 369.638 171.242 371.959 168.112L410.144 119.726L376.022 111.849C373.933 111.366 372.242 109.459 372.189 107.232Z" fill="white"/>
<path fill-rule="evenodd" clip-rule="evenodd" d="M135.627 145.19L115.763 140.604C113.87 140.043 112.34 138.249 112.152 136.358L110.347 32.2124C110.311 30.1223 111.999 28.8606 114.116 29.3493L132.611 33.6143C134.556 34.159 136.134 36.0119 136.284 37.9419L136.522 51.5412L136.899 51.6282C141.491 39.5936 150.467 35.5546 162.701 38.3792C175.124 41.2471 183.026 49.1826 188.815 63.614C193.407 51.5794 204.246 47.9705 215.921 50.6658C224.27 52.5935 233.415 58.189 239.117 67.3688C245.573 77.5923 244.501 90.0048 244.696 101.181L245.824 166.898C245.861 168.979 244.174 170.25 242.057 169.761L222.215 165.18C220.214 164.595 218.624 162.619 218.589 160.625L217.621 105.406C217.544 101.029 217.725 90.1499 216.72 85.7731C215.117 78.4157 210.633 75.4128 204.884 74.0856C200.058 72.9714 195.111 75.1078 193.161 79.8881C191.216 84.6901 191.553 93.4875 191.656 99.4119L192.62 154.615C192.656 156.696 190.973 157.967 188.856 157.479L169.011 152.897C167.013 152.312 165.415 150.335 165.38 148.34L164.397 93.1186C164.194 81.4999 165.744 64.8388 151.661 61.5875C137.376 58.2894 138.225 75.0684 138.436 87.125L139.396 142.327C139.432 144.408 137.744 145.679 135.627 145.19Z" fill="white"/>
<path fill-rule="evenodd" clip-rule="evenodd" d="M501.345 137.729C486.698 134.347 486.126 154.518 486.348 167.231C486.57 179.941 486.861 207.073 502.436 210.668C517.832 214.223 518.187 192.477 517.954 179.119C517.801 170.349 517.245 159.735 514.504 150.812C512.149 143.062 507.648 139.184 501.345 137.729ZM500.791 116.433C530.275 123.24 546.672 152.783 547.246 185.656C547.8 217.433 530.629 238.575 502.811 232.153C473.882 225.474 457.672 195.965 457.11 163.75C456.544 131.315 472.046 109.797 500.791 116.433Z" fill="white"/>
<path fill-rule="evenodd" clip-rule="evenodd" d="M586.435 249.267L566.647 244.699C564.654 244.115 563.055 242.137 563.021 240.143L561.164 135.947C561.3 134.074 562.92 132.964 564.919 133.425L583.349 137.675C585.081 138.161 586.542 139.705 586.928 141.402L587.206 157.332L587.582 157.419C592.893 144.454 600.56 139.467 614.286 142.636C623.185 144.69 631.959 149.98 637.676 160.255C643.014 169.78 643.259 183.801 643.435 193.888L644.579 259.432C644.395 261.222 642.797 262.279 640.831 261.825L620.919 257.228C619.074 256.682 617.567 254.961 617.324 253.139L616.337 196.586C616.138 185.189 617.147 168.834 603.425 165.666C598.604 164.553 594.211 166.811 592.074 171.334C589.401 177.053 589.14 183.315 589.262 190.335L590.241 246.413C590.245 248.487 588.557 249.757 586.435 249.267Z" fill="white"/>
<path fill-rule="evenodd" clip-rule="evenodd" d="M341.778 192.53C340.482 193.433 338.593 193.072 337.097 191.923C330.399 184.792 329.174 181.935 325.473 175.768C314.767 184.595 307.108 186.22 292.977 182.958C276.255 179.097 263.06 165.551 262.692 144.465C262.405 127.988 270.944 118.804 283.3 116.191C293.992 113.839 309.029 116.44 320.53 117.779L320.484 115.142C320.399 110.307 320.672 104.694 317.809 99.8746C315.327 95.5831 310.657 92.9734 306.57 92.0299C298.992 90.2804 292.329 92.6849 290.812 100.524C290.506 102.276 289.225 103.78 287.435 103.462L268.139 96.8832C266.506 96.1373 264.676 94.3844 265.101 91.9513C269.112 69.1196 290.078 66.7818 308.978 71.1452C318.645 73.377 331.325 78.9215 339.076 88.1526C348.898 99.6091 348.182 111.696 348.416 125.098L348.968 156.707C349.134 166.227 353.073 171.285 356.798 177.246C358.101 179.39 358.421 181.647 356.827 182.628C352.829 185.16 345.733 189.897 341.826 192.589L341.778 192.53ZM320.89 138.427C321.028 146.342 321.332 152.969 317.55 159.097C314.488 164.076 309.531 166.434 303.957 165.147C296.336 163.388 291.774 156.424 291.62 147.641C291.319 130.361 306.444 130.713 320.813 134.03L320.89 138.427Z" fill="white"/>
<path fill-rule="evenodd" clip-rule="evenodd" d="M81.3679 132.41C80.0764 133.313 78.1775 132.951 76.6871 131.803C69.9842 124.67 68.7638 121.814 65.0678 115.648C54.3571 124.474 46.6977 126.1 32.5719 122.839C15.845 118.977 2.65477 105.432 2.28672 84.3459C1.9991 67.8682 10.534 58.6833 22.894 56.0713C33.5861 53.7199 48.6232 56.3203 60.1146 57.6575L60.0685 55.0201C59.9841 50.1856 60.2664 44.5745 57.4034 39.7552C54.9166 35.4627 50.2416 32.8519 46.1594 31.9094C38.5863 30.161 31.9143 32.5633 30.4068 40.4044C30.0907 42.1545 28.8192 43.6608 27.0194 43.3408L7.72458 36.7618C6.09523 36.0169 4.26094 34.2628 4.69163 31.831C8.69222 8.99708 29.6679 6.66134 48.5677 11.0247C58.2349 13.2566 70.92 18.8021 78.6705 28.0332C88.4879 39.4887 87.7766 51.5763 88.0105 64.9787L88.5623 96.5872C88.7284 106.107 92.6678 111.165 96.383 117.125C97.6809 119.267 98.007 121.525 96.417 122.507C92.4182 125.039 85.3133 129.775 81.4157 132.468L81.3679 132.41ZM60.475 78.3054C60.6131 86.2202 60.9219 92.8486 57.1358 98.9753C54.0781 103.955 49.1204 106.314 43.5474 105.027C35.9309 103.269 31.3638 96.3039 31.2105 87.5207C30.9089 70.2409 46.0383 70.5937 60.3982 73.9089L60.475 78.3054Z" fill="white"/>
</mask>
<g mask="url(#mask0_19_12)">
<rect x="-397" y="-91" width="1440" height="958" fill="url(#pattern0)"/>
</g>
<defs>
<pattern id="pattern0" patternContentUnits="objectBoundingBox" width="1" height="1">
<use xlink:href="#image0_19_12" transform="matrix(0.00047116 0 0 0.000708215 -0.0889499 0)"/>
</pattern>
</defs>
</svg>
